<svg xmlns="http://www.w3.org/2000/svg" width="14" height="10" viewBox="0 0 14 10" fill="none">
  <path d="M0.00180334 1.29501C0.0013475 0.992957 0.0825567 0.700236 0.231335 0.467658C0.315112 0.336758 0.418003 0.228554 0.534114 0.149242C0.650224 0.0699305 0.777271 0.02107 0.907981 0.00545918C1.03869 -0.0101517 1.17049 0.00779407 1.29584 0.0582681C1.42119 0.108742 1.53762 0.190752 1.63846 0.299603L6.98754 6.09104L12.3466 0.506441C12.4487 0.399059 12.5661 0.318869 12.6922 0.27048C12.8183 0.22209 12.9505 0.206456 13.0813 0.224476C13.212 0.242496 13.3388 0.293813 13.4542 0.37548C13.5696 0.457147 13.6714 0.567553 13.7537 0.700351C13.8446 0.834105 13.9131 0.99074 13.955 1.16043C13.9969 1.33011 14.0113 1.50919 13.9972 1.68641C13.9832 1.86364 13.941 2.03519 13.8733 2.19029C13.8057 2.3454 13.714 2.48071 13.604 2.58774L7.61626 8.83164C7.43769 9.02177 7.2137 9.12572 6.98255 9.12572C6.7514 9.12572 6.52741 9.02177 6.34884 8.83164L0.361071 2.36797C0.2403 2.23829 0.14483 2.07355 0.0824079 1.88713C0.019987 1.7007 -0.00762755 1.49784 0.00180334 1.29501Z" fill="white"/>
</svg>