<svg xmlns="http://www.w3.org/2000/svg" width="182" height="56" viewBox="0 0 182 56" fill="none">
  <path d="M41.3523 25.2092H48.9265V27.7683C50.9394 26.6261 52.863 25.8241 54.6956 25.3638C56.5298 24.9035 58.3246 24.6733 60.0816 24.6733C62.3848 24.6733 64.5162 25.01 66.4776 25.6832C68.439 26.3565 70.1359 27.3595 71.57 28.6889C73.0024 30.0199 74.1239 31.679 74.9346 33.6644C75.7452 35.6516 76.1506 37.9513 76.1506 40.5602V55.4011H68.6021V41.7882C68.6021 40.1343 68.3669 38.6538 67.898 37.3502C67.4291 36.0449 66.7541 34.9457 65.8765 34.0492C64.9971 33.1544 63.9323 32.4708 62.6785 32.0019C61.4247 31.533 60.0215 31.2977 58.4689 31.2977C57.6497 31.2977 56.8098 31.3836 55.9493 31.5536C55.0871 31.7254 54.2439 31.9676 53.416 32.2836C52.5882 32.5996 51.7913 32.9912 51.0235 33.4601C50.2558 33.9289 49.5568 34.4631 48.9248 35.0591V55.4011H41.3506V25.2075L41.3523 25.2092Z" fill="white"/>
  <path d="M111.379 40.3818C111.379 38.1646 111.784 36.0967 112.595 34.1765C113.406 32.2581 114.591 30.5938 116.152 29.1872C117.713 27.7806 119.623 26.6762 121.883 25.8741C124.144 25.0721 126.723 24.6719 129.622 24.6719C130.885 24.6719 132.156 24.7492 133.435 24.902C134.715 25.0549 135.946 25.273 137.133 25.5547C138.318 25.8363 139.431 26.1695 140.472 26.5525C141.513 26.9373 142.416 27.358 143.184 27.8201L139.678 33.5256C138.024 32.7579 136.458 32.1945 134.983 31.8373C133.507 31.4783 132.01 31.2997 130.492 31.2997C128.752 31.2997 127.19 31.5264 125.81 31.9781C124.429 32.4298 123.256 33.0619 122.29 33.8708C121.327 34.6815 120.594 35.6364 120.09 36.7373C119.587 37.8382 119.336 39.0353 119.336 40.332C119.336 41.6287 119.604 42.8276 120.142 43.9268C120.679 45.0277 121.439 45.974 122.419 46.7675C123.4 47.561 124.585 48.1827 125.976 48.6344C127.366 49.0861 128.915 49.3128 130.62 49.3128C132.496 49.3128 134.267 49.0483 135.929 48.5194C137.592 47.9904 139.141 47.2828 140.573 46.3948L144.079 52.1021C143.175 52.6482 142.195 53.1549 141.137 53.6238C140.079 54.0926 138.948 54.498 137.746 54.8398C136.544 55.1815 135.282 55.4495 133.959 55.6453C132.637 55.8411 131.268 55.939 129.853 55.939C126.969 55.939 124.386 55.5474 122.1 54.7625C119.814 53.9776 117.878 52.8904 116.291 51.5009C114.704 50.1115 113.49 48.4695 112.645 46.5751C111.8 44.6825 111.377 42.618 111.377 40.3836" fill="white"/>
  <path d="M155.031 45.6288C155.031 46.1234 155.16 46.5975 155.416 47.0492C155.672 47.5009 156.081 47.9028 156.644 48.2514C157.207 48.6018 157.927 48.8817 158.806 49.0964C159.684 49.3094 160.747 49.4159 161.992 49.4159C163.323 49.4159 164.61 49.2974 165.857 49.0587C167.102 48.8199 168.261 48.5039 169.336 48.1123C170.412 47.7207 171.384 47.269 172.253 46.7555C173.123 46.2437 173.848 45.7164 174.427 45.1685V43.8375C173.266 43.5128 172.119 43.2415 170.985 43.0182C169.85 42.7966 168.768 42.6215 167.736 42.4944C166.703 42.3673 165.731 42.278 164.819 42.2264C163.907 42.1749 163.109 42.1492 162.427 42.1492C161.012 42.1492 159.833 42.2419 158.896 42.4308C157.958 42.618 157.199 42.8705 156.618 43.1848C156.038 43.5008 155.629 43.8718 155.39 44.2977C155.152 44.7254 155.031 45.1685 155.031 45.6288ZM147.048 45.8847C147.048 44.4351 147.364 43.1127 147.995 41.919C148.625 40.7253 149.573 39.6983 150.835 38.8361C152.098 37.9756 153.671 37.3092 155.557 36.8404C157.441 36.3715 159.638 36.1362 162.145 36.1362C164.005 36.1362 165.961 36.2736 168.017 36.545C170.073 36.818 172.193 37.2354 174.375 37.7987C174.29 36.8438 173.999 35.961 173.505 35.1503C173.01 34.3397 172.323 33.6407 171.445 33.0516C170.566 32.4625 169.51 32.0073 168.273 31.6827C167.037 31.3598 165.633 31.1967 164.064 31.1967C163.21 31.1967 162.272 31.2482 161.249 31.3495C160.225 31.4526 159.167 31.6054 158.076 31.8098C156.984 32.0142 155.905 32.2701 154.839 32.5775C153.772 32.885 152.78 33.2525 151.857 33.6784L149.554 27.4611C150.696 27.0523 151.921 26.6762 153.226 26.3344C154.532 25.9944 155.866 25.6989 157.23 25.4516C158.595 25.2043 159.959 25.0119 161.324 24.8763C162.688 24.7406 164.01 24.6719 165.29 24.6719C170.935 24.6719 175.133 26.1129 177.879 28.9965C180.625 31.8802 181.999 36.2976 181.999 42.2505V55.4014H174.425V52.5606C173.64 53.0209 172.783 53.4555 171.854 53.8659C170.925 54.2747 169.913 54.6337 168.823 54.9411C167.73 55.2485 166.559 55.4907 165.304 55.671C164.05 55.8496 162.724 55.939 161.326 55.939C158.971 55.939 156.903 55.6831 155.121 55.1712C153.338 54.6594 151.849 53.9518 150.655 53.0467C149.461 52.1433 148.561 51.0802 147.955 49.8607C147.349 48.6413 147.047 47.3154 147.047 45.8813" fill="white"/>
  <mask id="mask0_1_150" style="mask-type:luminance" maskUnits="userSpaceOnUse" x="81" y="22" width="30" height="34">
    <path d="M110.004 22.812H81.7112V55.5922H110.004V22.812Z" fill="white"/>
  </mask>
  <g mask="url(#mask0_1_150)">
    <path d="M108.298 55.4033V48.5608H99.9541V24.1895H99.93L99.9541 24.1396C99.9438 24.1568 99.9335 24.174 99.9231 24.1912L84.2664 28.9143L84.488 35.8667L92.1515 34.1252V48.5608H83.4146V55.4033H108.296H108.298Z" fill="white"/>
  </g>
  <path d="M34.0821 55.403V25.1836H26.5079V45.5257C25.9961 46.0718 25.3864 46.575 24.6788 47.0353C23.9711 47.4956 23.2069 47.8924 22.3893 48.2256C21.5701 48.5588 20.713 48.8181 19.8182 49.0053C18.9234 49.1942 18.0389 49.287 17.1698 49.287C15.327 49.287 13.7881 49.0603 12.5515 48.6086C11.3149 48.1569 10.3256 47.5214 9.58365 46.7021C8.84169 45.8846 8.31785 44.8988 8.01042 43.7463C7.70299 42.5956 7.55013 41.3195 7.55013 39.9215V36.8248H0V40.9966C0 43.3685 0.290257 45.4793 0.870772 47.329C1.44957 49.1805 2.36843 50.74 3.62221 52.0109C4.87598 53.2819 6.487 54.2488 8.45868 54.9152C10.4287 55.5799 12.7954 55.9131 15.5588 55.9131C17.2471 55.9131 19.0299 55.6744 20.9071 55.1969C22.7826 54.7194 24.6513 53.9259 26.5113 52.8164V55.4013H34.0855L34.0821 55.403Z" fill="white"/>
  <path d="M0 25.1836V36.8248L7.54841 29.6354V25.1836H0Z" fill="white"/>
  <path d="M7.60593 0.128906V2.33418H3.07861V4.71635H6.46723V6.85807H3.07861V11.4301H0.371826V0.128906H7.60765H7.60593Z" fill="white"/>
  <path d="M27.033 9.4326H22.8853L22.2206 11.4283H19.3867L23.4074 0.128906H26.5418L30.5642 11.4301H27.6994L27.0347 9.43432L27.033 9.4326ZM26.3357 7.30805L24.9583 3.1706L23.5963 7.30805H26.3357Z" fill="white"/>
  <path d="M43.1185 2.7772C43.5943 1.90299 44.2555 1.22114 45.1057 0.733372C45.9558 0.245602 46.9194 0 47.9945 0C49.3135 0 50.4437 0.353805 51.3831 1.06313C52.3226 1.77074 52.9512 2.73769 53.2672 3.96055H50.2908C50.0692 3.48824 49.7549 3.12928 49.3479 2.88196C48.9409 2.63464 48.4806 2.51098 47.9636 2.51098C47.1289 2.51098 46.4539 2.80639 45.9369 3.39721C45.42 3.98803 45.1606 4.77637 45.1606 5.76393C45.1606 6.75149 45.4183 7.53982 45.9369 8.13064C46.4539 8.72146 47.1289 9.01687 47.9636 9.01687C48.4806 9.01687 48.9426 8.89321 49.3479 8.64589C49.7549 8.39857 50.0675 8.03962 50.2908 7.5673H53.2672C52.9512 8.79016 52.3226 9.75368 51.3831 10.4561C50.4437 11.1586 49.3135 11.5107 47.9945 11.5107C46.9176 11.5107 45.9541 11.2668 45.1057 10.779C44.2555 10.2913 43.5943 9.61113 43.1185 8.74207C42.6428 7.87302 42.4058 6.8803 42.4058 5.76393C42.4058 4.64755 42.6428 3.65312 43.1185 2.7772Z" fill="white"/>
  <path d="M68.6724 0.128906V6.88898C68.6724 7.56568 68.8355 8.08608 69.1636 8.45019C69.4899 8.8143 69.9708 8.99807 70.6045 8.99807C71.2383 8.99807 71.7226 8.81602 72.061 8.45019C72.3993 8.08608 72.5676 7.56396 72.5676 6.88898V0.128906H75.2744V6.87353C75.2744 7.8817 75.0632 8.7353 74.6407 9.4326C74.2182 10.1299 73.6514 10.6555 72.9386 11.011C72.2259 11.3648 71.4324 11.5417 70.5564 11.5417C69.6805 11.5417 68.8973 11.3682 68.2052 11.0179C67.513 10.6692 66.9686 10.1436 66.5667 9.43947C66.1648 8.73701 65.9656 7.87998 65.9656 6.87181V0.128906H68.6724Z" fill="white"/>
  <path d="M90.9614 9.30379H94.5081V11.4283H88.2546V0.128906H90.9614V9.30379Z" fill="white"/>
  <path d="M114.123 0.836516C114.999 1.30883 115.677 1.97178 116.158 2.82538C116.639 3.67898 116.878 4.66311 116.878 5.77948C116.878 6.89585 116.637 7.86624 116.158 8.72499C115.677 9.58374 114.997 10.2484 114.116 10.7207C113.235 11.193 112.213 11.4283 111.052 11.4283H106.889V0.128906H111.052C112.223 0.128906 113.247 0.364204 114.123 0.836516ZM113.268 8.19257C113.838 7.62407 114.123 6.81857 114.123 5.77776C114.123 4.73696 113.838 3.9263 113.268 3.3475C112.698 2.7687 111.901 2.47845 110.877 2.47845H109.594V9.04616H110.877C111.901 9.04616 112.698 8.76278 113.268 8.19257Z" fill="white"/>
  <path d="M136.399 9.4326H132.251L131.587 11.4283H128.753L132.773 0.128906H135.908L139.93 11.4301H137.065L136.401 9.43432L136.399 9.4326ZM135.702 7.30805L134.324 3.1706L132.962 7.30805H135.702Z" fill="white"/>
  <path d="M159.467 0.836516C160.342 1.30883 161.021 1.97178 161.502 2.82538C161.983 3.67898 162.221 4.66311 162.221 5.77948C162.221 6.89585 161.981 7.86624 161.502 8.72499C161.021 9.58374 160.341 10.2484 159.46 10.7207C158.579 11.193 157.557 11.4283 156.396 11.4283H152.232V0.128906H156.396C157.567 0.128906 158.591 0.364204 159.467 0.836516ZM158.611 8.19257C159.181 7.62407 159.467 6.81857 159.467 5.77776C159.467 4.73696 159.181 3.9263 158.611 3.3475C158.041 2.7687 157.244 2.47845 156.22 2.47845H154.937V9.04616H156.22C157.244 9.04616 158.041 8.76278 158.611 8.19257Z" fill="white"/>
  <path d="M177.529 2.33418V4.62017H181.155V6.74471H177.529V9.22307H181.629V11.4283H174.821V0.128906H181.629V2.33418H177.529Z" fill="white"/>
</svg>