<svg xmlns="http://www.w3.org/2000/svg" width="18" height="36" viewBox="0 0 18 36" fill="none">
  <path d="M15.4457 35.9954C16.0414 35.9965 16.6188 35.7877 17.0776 35.4052C17.3358 35.1898 17.5492 34.9253 17.7056 34.6268C17.8621 34.3283 17.9584 34.0017 17.9892 33.6656C18.02 33.3295 17.9846 32.9907 17.8851 32.6684C17.7855 32.3462 17.6238 32.0468 17.409 31.7875L5.98573 18.0352L17.0011 4.25717C17.2129 3.99473 17.371 3.69275 17.4665 3.3686C17.5619 3.04444 17.5928 2.7045 17.5572 2.36832C17.5217 2.03213 17.4205 1.70633 17.2594 1.40964C17.0983 1.11294 16.8805 0.85121 16.6186 0.639478C16.3548 0.405902 16.0458 0.229719 15.7111 0.121986C15.3764 0.0142533 15.0232 -0.0227028 14.6736 0.0134354C14.3241 0.0495735 13.9857 0.158027 13.6798 0.331988C13.3738 0.50595 13.1069 0.741665 12.8958 1.02434L0.580059 16.4188C0.205023 16.8779 0 17.4537 0 18.048C0 18.6423 0.205023 19.2182 0.580059 19.6773L13.3293 35.0717C13.5851 35.3822 13.91 35.6276 14.2777 35.7881C14.6454 35.9486 15.0456 36.0196 15.4457 35.9954Z" fill="white"/>
</svg>