<svg xmlns="http://www.w3.org/2000/svg" width="10" height="19" viewBox="0 0 10 19" fill="none">
  <path d="M7.83071 18.6948C8.13276 18.6954 8.42548 18.5896 8.65806 18.3959C8.78896 18.2868 8.89716 18.1527 8.97647 18.0015C9.05579 17.8503 9.10465 17.6848 9.12026 17.5146C9.13587 17.3444 9.11792 17.1727 9.06745 17.0095C9.01697 16.8462 8.93496 16.6946 8.82611 16.5632L3.03467 9.59657L8.61928 2.61692C8.72666 2.48397 8.80685 2.33099 8.85524 2.16679C8.90363 2.00258 8.91926 1.83037 8.90124 1.66007C8.88322 1.48976 8.8319 1.32472 8.75024 1.17442C8.66857 1.02412 8.55816 0.891532 8.42537 0.784273C8.29161 0.665949 8.13498 0.576698 7.96529 0.522123C7.7956 0.467548 7.61653 0.448826 7.4393 0.467133C7.26208 0.48544 7.09053 0.54038 6.93543 0.628505C6.78032 0.716631 6.64501 0.836039 6.53798 0.979235L0.294081 8.77773C0.103943 9.01029 0 9.30201 0 9.60307C0 9.90412 0.103943 10.1958 0.294081 10.4284L6.75774 18.2269C6.88743 18.3842 7.05216 18.5085 7.23859 18.5898C7.42501 18.6711 7.62787 18.7071 7.83071 18.6948Z" fill="white"/>
</svg>