<svg xmlns="http://www.w3.org/2000/svg" width="56" height="54" viewBox="0 0 56 54" fill="none">
  <g clip-path="url(#clip0_1_624)">
    <g filter="url(#filter0_d_1_624)">
      <path d="M13.6277 27.4133C13.6277 19.5059 20.1096 13.0957 28.017 13.0957C35.9244 13.0957 42.4063 19.5059 42.4063 27.4133C42.4063 35.3207 35.9244 41.7309 28.017 41.7309C20.1096 41.7309 13.6277 35.3207 13.6277 27.4133Z" fill="white" fill-opacity="0.2"/>
    </g>
    <path fill-rule="evenodd" clip-rule="evenodd" d="M27.71 41.1642C35.3509 41.1642 41.6478 34.9963 41.7744 27.3878C41.9012 19.7793 35.8097 13.6113 28.1688 13.6113C20.5279 13.6113 14.231 19.7793 14.1043 27.3878C13.9776 34.9963 20.0691 41.1642 27.71 41.1642ZM27.7014 41.6801C35.6284 41.6801 42.1608 35.2813 42.2924 27.3878C42.4237 19.4945 36.1042 13.0957 28.1773 13.0957C20.2504 13.0957 13.7179 19.4945 13.5865 27.3878C13.4551 35.2813 19.7745 41.6801 27.7014 41.6801Z" fill="white" stroke="white" stroke-width="3"/>
    <g opacity="0.7">
      <mask id="path-4-inside-1_1_624" fill="white">
        <path fill-rule="evenodd" clip-rule="evenodd" d="M27.5206 53.3052C42.0005 53.3052 53.9335 41.6164 54.1737 27.1978C54.4137 12.779 42.8699 1.09035 28.39 1.09035C13.91 1.09035 1.977 12.779 1.73692 27.1978C1.49684 41.6164 13.0406 53.3052 27.5206 53.3052ZM27.512 53.8207C42.2779 53.8207 54.4467 41.9013 54.6914 27.1978C54.9362 12.4942 43.1647 0.574707 28.3986 0.574707C13.6326 0.574707 1.4639 12.4942 1.21908 27.1978C0.974263 41.9013 12.746 53.8207 27.512 53.8207Z"/>
      </mask>
      <path fill-rule="evenodd" clip-rule="evenodd" d="M27.5206 53.3052C42.0005 53.3052 53.9335 41.6164 54.1737 27.1978C54.4137 12.779 42.8699 1.09035 28.39 1.09035C13.91 1.09035 1.977 12.779 1.73692 27.1978C1.49684 41.6164 13.0406 53.3052 27.5206 53.3052ZM27.512 53.8207C42.2779 53.8207 54.4467 41.9013 54.6914 27.1978C54.9362 12.4942 43.1647 0.574707 28.3986 0.574707C13.6326 0.574707 1.4639 12.4942 1.21908 27.1978C0.974263 41.9013 12.746 53.8207 27.512 53.8207Z" fill="white"/>
      <path d="M54.1737 27.1978L55.1736 27.2144V27.2144L54.1737 27.1978ZM1.73692 27.1978L2.73678 27.2144L1.73692 27.1978ZM54.6914 27.1978L53.6916 27.1811L54.6914 27.1978ZM1.21908 27.1978L2.21894 27.2144L1.21908 27.1978ZM27.5206 54.3052C42.5425 54.3052 54.9242 42.1825 55.1736 27.2144L53.1739 27.1811C52.9428 41.0502 41.4584 52.3052 27.5206 52.3052V54.3052ZM55.1736 27.2144C55.423 12.233 43.4248 0.090353 28.39 0.090353V2.09035C42.3151 2.09035 53.4045 13.3251 53.1739 27.1811L55.1736 27.2144ZM28.39 0.090353C13.368 0.090353 0.986283 12.2129 0.737058 27.1811L2.73678 27.2144C2.96771 13.3452 14.452 2.09035 28.39 2.09035V0.090353ZM0.737058 27.1811C0.48761 42.1624 12.4858 54.3052 27.5206 54.3052V52.3052C13.5954 52.3052 2.50607 41.0703 2.73678 27.2144L0.737058 27.1811ZM27.512 54.8207C42.8199 54.8207 55.4374 42.4674 55.6913 27.2144L53.6916 27.1811C53.456 41.3352 41.7359 52.8207 27.512 52.8207V54.8207ZM55.6913 27.2144C55.9454 11.9482 43.7195 -0.425293 28.3986 -0.425293V1.57471C42.6098 1.57471 53.927 13.0403 53.6916 27.1811L55.6913 27.2144ZM28.3986 -0.425293C13.0905 -0.425293 0.473188 11.9281 0.219221 27.1811L2.21894 27.2144C2.45461 13.0604 14.1746 1.57471 28.3986 1.57471V-0.425293ZM0.219221 27.1811C-0.0349673 42.4473 12.1912 54.8207 27.512 54.8207V52.8207C13.3008 52.8207 1.98349 41.3553 2.21894 27.2144L0.219221 27.1811Z" fill="white" mask="url(#path-4-inside-1_1_624)"/>
    </g>
    <path d="M25.9354 22.4949L32.1478 27.1977L25.7788 31.9005L25.9354 22.4949Z" fill="white"/>
  </g>
  <defs>
    <filter id="filter0_d_1_624" x="-18.3723" y="1.0957" width="92.7786" height="92.6353" filterUnits="userSpaceOnUse" color-interpolation-filters="sRGB">
      <feFlood flood-opacity="0" result="BackgroundImageFix"/>
      <feColorMatrix in="SourceAlpha" type="matrix" values="0 0 0 0 0 0 0 0 0 0 0 0 0 0 0 0 0 0 127 0" result="hardAlpha"/>
      <feMorphology radius="3" operator="dilate" in="SourceAlpha" result="effect1_dropShadow_1_624"/>
      <feOffset dy="20"/>
      <feGaussianBlur stdDeviation="14.5"/>
      <feComposite in2="hardAlpha" operator="out"/>
      <feColorMatrix type="matrix" values="0 0 0 0 0.828507 0 0 0 0 0.845284 0 0 0 0 0.929167 0 0 0 0.49 0"/>
      <feBlend mode="normal" in2="BackgroundImageFix" result="effect1_dropShadow_1_624"/>
      <feBlend mode="normal" in="SourceGraphic" in2="effect1_dropShadow_1_624" result="shape"/>
    </filter>
    <clipPath id="clip0_1_624">
      <rect x="0.775879" y="0.574707" width="54.4809" height="53.423" rx="26.7115" fill="white"/>
    </clipPath>
  </defs>
</svg>