<svg xmlns="http://www.w3.org/2000/svg" width="93" height="28" viewBox="0 0 93 28" fill="none">
  <path d="M89.0171 27.847H3.42373C1.54068 27.847 0 26.2989 0 24.4068V3.76584C0 1.87375 1.54068 0.325678 3.42373 0.325678H89.0171C90.9001 0.325678 92.4408 1.87375 92.4408 3.76584V24.4068C92.4408 26.2989 90.9001 27.847 89.0171 27.847Z" fill="black" fill-opacity="0.1"/>
  <path d="M73.2241 20.9666H74.5018V12.3654H73.2241V20.9666ZM84.7326 15.4638L83.268 19.1928H83.2241L81.704 15.4638H80.3276L82.6072 20.6758L81.3075 23.575H82.6407L86.1535 15.4638H84.7326ZM77.4866 19.9897C77.0676 19.9897 76.4842 19.7795 76.4842 19.2592C76.4842 18.5953 77.2114 18.3408 77.8386 18.3408C78.4008 18.3408 78.6644 18.4625 79.0061 18.6287C78.9068 19.4253 78.2241 19.9897 77.4866 19.9897ZM77.6407 15.2756C76.7156 15.2756 75.7576 15.6852 75.3612 16.5925L76.4951 17.0682C76.7375 16.5925 77.1888 16.4375 77.6626 16.4375C78.3234 16.4375 78.9951 16.836 79.0061 17.5442V17.6326C78.7746 17.4998 78.2796 17.3007 77.6736 17.3007C76.4513 17.3007 75.2064 17.9756 75.2064 19.2371C75.2064 20.388 76.2089 21.1295 77.3319 21.1295C78.1912 21.1295 78.6644 20.7422 78.9623 20.2886H79.0061V20.9524H80.2393V17.6547C80.2393 16.1278 79.1054 15.2756 77.6407 15.2756ZM69.7442 16.5108H67.9269V13.5625H69.7442C70.6994 13.5625 71.2417 14.3572 71.2417 15.0366C71.2417 15.7032 70.6994 16.5108 69.7442 16.5108ZM69.7113 12.3654H66.6498V20.9666H67.9269V17.7079H69.7113C71.1274 17.7079 72.5195 16.6777 72.5195 15.0366C72.5195 13.3956 71.1274 12.3654 69.7113 12.3654ZM53.0165 19.9913C52.1338 19.9913 51.3948 19.2487 51.3948 18.2287C51.3948 17.1981 52.1338 16.4442 53.0165 16.4442C53.888 16.4442 54.5719 17.1981 54.5719 18.2287C54.5719 19.2487 53.888 19.9913 53.0165 19.9913ZM54.4837 15.9454H54.4395C54.1528 15.6018 53.601 15.2915 52.9061 15.2915C51.4499 15.2915 50.1152 16.5772 50.1152 18.2287C50.1152 19.8693 51.4499 21.144 52.9061 21.144C53.601 21.144 54.1528 20.8336 54.4395 20.4791H54.4837V20.9002C54.4837 22.0199 53.888 22.6185 52.9283 22.6185C52.145 22.6185 51.6596 22.053 51.4608 21.5764L50.3468 22.042C50.6667 22.8179 51.5162 23.7712 52.9283 23.7712C54.4285 23.7712 55.6972 22.8842 55.6972 20.7229V15.4688H54.4837V15.9454ZM56.5796 20.9666H57.8593V12.3651H56.5796V20.9666ZM59.7457 18.1291C59.7126 16.9983 60.6172 16.4221 61.268 16.4221C61.7758 16.4221 62.2058 16.6769 62.3489 17.043L59.7457 18.1291ZM63.7171 17.1537C63.4747 16.4995 62.7351 15.2915 61.2238 15.2915C59.7235 15.2915 58.4771 16.4775 58.4771 18.2177C58.4771 19.8583 59.7126 21.144 61.3672 21.144C62.7023 21.144 63.4747 20.3237 63.7944 19.8472L62.8016 19.182C62.4708 19.6698 62.0182 19.9913 61.3672 19.9913C60.7164 19.9913 60.2532 19.6919 59.9552 19.1046L63.8492 17.4862L63.7171 17.1537ZM32.6924 16.1894V17.4308H35.6488C35.5605 18.1291 35.3289 18.6389 34.9758 18.9936C34.5457 19.4261 33.8728 19.9026 32.6924 19.9026C30.8722 19.9026 29.4492 18.4284 29.4492 16.5995C29.4492 14.7706 30.8722 13.2962 32.6924 13.2962C33.6743 13.2962 34.3911 13.6842 34.9207 14.183L35.7922 13.3075C35.0531 12.5979 34.0712 12.0548 32.6924 12.0548C30.1992 12.0548 28.1032 14.0944 28.1032 16.5995C28.1032 19.1046 30.1992 21.144 32.6924 21.144C34.0384 21.144 35.0531 20.7008 35.8473 19.8693C36.6637 19.049 36.9175 17.8963 36.9175 16.9653C36.9175 16.6769 36.8955 16.4111 36.8512 16.1894H32.6924ZM40.2787 19.9913C39.3959 19.9913 38.6347 19.2597 38.6347 18.2177C38.6347 17.1647 39.3959 16.4442 40.2787 16.4442C41.161 16.4442 41.9223 17.1647 41.9223 18.2177C41.9223 19.2597 41.161 19.9913 40.2787 19.9913ZM40.2787 15.2915C38.6679 15.2915 37.3551 16.5218 37.3551 18.2177C37.3551 19.9026 38.6679 21.144 40.2787 21.144C41.8891 21.144 43.2019 19.9026 43.2019 18.2177C43.2019 16.5218 41.8891 15.2915 40.2787 15.2915ZM46.6558 19.9913C45.7735 19.9913 45.0122 19.2597 45.0122 18.2177C45.0122 17.1647 45.7735 16.4442 46.6558 16.4442C47.5383 16.4442 48.2995 17.1647 48.2995 18.2177C48.2995 19.2597 47.5383 19.9913 46.6558 19.9913ZM46.6558 15.2915C45.0451 15.2915 43.7326 16.5218 43.7326 18.2177C43.7326 19.9026 45.0451 21.144 46.6558 21.144C48.2664 21.144 49.5792 19.9026 49.5792 18.2177C49.5792 16.5218 48.2664 15.2915 46.6558 15.2915Z" fill="white"/>
  <path d="M7.19655 22.6107L7.14567 22.5618C6.94641 22.3499 6.82877 22.021 6.82877 21.595V21.6953V6.47875C6.82877 6.47738 6.82877 6.47635 6.82877 6.47525C6.82877 6.47655 6.82877 6.47765 6.82877 6.47903V6.57955C6.82877 6.11829 6.96593 5.77084 7.19573 5.5625L15.6796 14.0869L7.19655 22.6107ZM6.82877 6.47442C6.82877 6.43651 6.8298 6.3997 6.83172 6.36344C6.8298 6.39943 6.82877 6.43651 6.82877 6.47442ZM6.83172 6.36179C6.83172 6.36131 6.83172 6.36076 6.83192 6.36021C6.83172 6.36076 6.83172 6.36131 6.83172 6.36179ZM6.83192 6.35697C6.83192 6.3567 6.83192 6.35642 6.83192 6.35615C6.83192 6.35642 6.83192 6.3567 6.83192 6.35697Z" fill="url(#paint0_linear_153_333)"/>
  <path d="M18.5071 17.03L18.5716 16.9932L21.922 15.0804C22.2415 14.898 22.4544 14.6768 22.5606 14.4427C22.4546 14.6768 22.2417 14.8982 21.922 15.0807L18.5716 16.9935L18.5071 17.03ZM18.508 16.9293L15.6796 14.0869L18.5077 11.2449L21.922 13.194C22.3556 13.4415 22.599 13.7606 22.6397 14.0866C22.6397 14.0869 22.6397 14.0874 22.6397 14.0879C22.599 14.4131 22.3556 14.7324 21.922 14.9799L18.508 16.9293Z" fill="url(#paint1_linear_153_333)"/>
  <path d="M7.80132 22.9353C7.56433 22.9353 7.35754 22.8579 7.19628 22.7117L7.19656 22.7114C7.35782 22.8576 7.56488 22.9353 7.80187 22.9353C7.82242 22.9353 7.8433 22.9348 7.86446 22.9337C7.84303 22.9348 7.82187 22.9353 7.80132 22.9353ZM7.8016 22.8345C7.56461 22.8348 7.35782 22.7571 7.19656 22.6109V22.6107L15.6796 14.0869L18.508 16.9293L8.56872 22.6037C8.29373 22.7603 8.03318 22.8345 7.8016 22.8345ZM7.19416 22.7098C7.17916 22.6962 7.16444 22.6816 7.14999 22.6666L7.19416 22.7098Z" fill="url(#paint2_linear_153_333)"/>
  <path d="M15.6796 14.0869L7.19572 5.56251C7.35698 5.41658 7.5635 5.33918 7.80022 5.33918C8.03242 5.33918 8.29317 5.41362 8.56871 5.57056L18.5077 11.245L15.6796 14.0869ZM18.5716 11.1808L8.56871 5.47011C8.29317 5.3131 8.03242 5.23865 7.80022 5.23865C7.79912 5.23865 7.79837 5.23865 7.79727 5.23865C7.79864 5.23865 7.79967 5.23865 7.80131 5.23865C8.03296 5.23865 8.29344 5.31282 8.56871 5.46983L18.5716 11.1808Z" fill="url(#paint3_linear_153_333)"/>
  <path d="M7.86445 22.9337C8.07974 22.9213 8.3181 22.8469 8.56872 22.7042L18.5071 17.0301L8.56872 22.7042C8.3183 22.8472 8.07974 22.9213 7.86445 22.9337ZM7.19628 22.7117L7.19416 22.7098C7.19491 22.7104 7.19573 22.7111 7.19628 22.7117ZM7.14999 22.6666L7.14568 22.6623V22.662C7.14732 22.6636 7.14862 22.6652 7.14999 22.6666Z" fill="black" fill-opacity="0.1"/>
  <path d="M18.5071 17.03L18.5716 16.9932L18.5071 17.03Z" fill="url(#paint4_linear_153_333)"/>
  <path d="M7.80187 22.9353C7.56488 22.9353 7.35781 22.8576 7.19655 22.7114L7.19628 22.7117C7.19573 22.7112 7.19491 22.7104 7.19416 22.7098L7.14999 22.6666C7.14862 22.6652 7.14732 22.6636 7.14568 22.662L7.19655 22.6109C7.35781 22.7571 7.5646 22.8348 7.8016 22.8345C8.03318 22.8345 8.29372 22.7603 8.56872 22.6037L18.508 16.9293L18.5716 16.9933L18.5071 17.0301L8.56872 22.7042C8.3181 22.8469 8.07974 22.9213 7.86445 22.9337C7.8433 22.9348 7.82241 22.9353 7.80187 22.9353Z" fill="url(#paint5_linear_153_333)"/>
  <path d="M7.14568 22.6623C6.94641 22.4504 6.82877 22.1215 6.82877 21.6955V21.6953C6.82877 22.1215 6.94641 22.4502 7.14568 22.662V22.6623Z" fill="black" fill-opacity="0.1"/>
  <path d="M7.14567 22.662C6.94641 22.4502 6.82877 22.1215 6.82877 21.6953V21.595C6.82877 22.021 6.94641 22.3499 7.14567 22.5618L7.19655 22.6107L7.14567 22.662Z" fill="url(#paint6_linear_153_333)"/>
  <path d="M7.14568 22.662L7.19655 22.6107V22.6109L7.14568 22.662Z" fill="url(#paint7_linear_153_333)"/>
  <path d="M22.5606 14.4427C22.6132 14.3266 22.6397 14.2073 22.6397 14.0879C22.6397 14.0877 22.6397 14.0874 22.6397 14.0874C22.6397 14.207 22.6132 14.3263 22.5606 14.4427Z" fill="black" fill-opacity="0.1"/>
  <path d="M18.5716 16.9932L18.5079 16.9293L21.922 14.9799C22.3556 14.7324 22.599 14.4131 22.6397 14.0879C22.6397 14.2073 22.6132 14.3266 22.5606 14.4427C22.4543 14.6768 22.2415 14.898 21.922 15.0805L18.5716 16.9932Z" fill="url(#paint8_linear_153_333)"/>
  <path d="M22.6397 14.0869V14.0866C22.6394 13.7267 22.4001 13.3669 21.922 13.0938L18.5716 11.181H18.5714L18.5716 11.1808L21.922 13.0935C22.4006 13.3666 22.6403 13.727 22.6397 14.0869Z" fill="#404040"/>
  <path d="M22.6397 14.0866C22.599 13.7606 22.3556 13.4416 21.922 13.194L18.5077 11.2449L18.5714 11.181H18.5716L21.922 13.0938C22.4001 13.3668 22.6394 13.7267 22.6397 14.0866Z" fill="url(#paint9_linear_153_333)"/>
  <path d="M6.82877 6.47523C6.82877 6.47495 6.82877 6.47468 6.82877 6.4744C6.82877 6.47468 6.82877 6.47495 6.82877 6.47523ZM6.83172 6.36342C6.83172 6.36287 6.83172 6.36232 6.83172 6.36177C6.83172 6.36232 6.83172 6.36287 6.83172 6.36342ZM6.83192 6.36019C6.83192 6.35909 6.83192 6.35806 6.83192 6.35696C6.83192 6.35806 6.83192 6.35909 6.83192 6.36019ZM6.83192 6.35613C6.87157 5.64931 7.25407 5.24104 7.79516 5.23863C7.56056 5.24 7.35623 5.31741 7.19628 5.46224V5.46196L7.19436 5.46389C7.17751 5.47916 7.16149 5.49533 7.14567 5.51198C6.96593 5.70305 6.85253 5.98927 6.83192 6.35613Z" fill="#404040"/>
  <path d="M6.82877 6.57954V6.47902C6.82877 6.47764 6.82877 6.47654 6.82877 6.47524C6.82877 6.47496 6.82877 6.47469 6.82877 6.47441C6.82877 6.4365 6.8298 6.39941 6.83172 6.36343C6.83172 6.36288 6.83172 6.36233 6.83172 6.36178C6.83172 6.3613 6.83172 6.36075 6.83192 6.3602C6.83192 6.3591 6.83192 6.35806 6.83192 6.35696C6.83192 6.35669 6.83192 6.35641 6.83192 6.35614C6.85253 5.98928 6.96593 5.70306 7.14567 5.51199L7.19573 5.56249C6.96593 5.77083 6.82877 6.11828 6.82877 6.57954ZM7.19436 5.46389L7.19628 5.46197C7.19573 5.4628 7.19491 5.46334 7.19436 5.46389Z" fill="url(#paint10_linear_153_333)"/>
  <path d="M18.5077 11.2449L8.56872 5.57053C8.29317 5.41359 8.03242 5.33914 7.80023 5.33914C7.56351 5.33914 7.35699 5.41655 7.19573 5.56248L7.14568 5.51198C7.16149 5.49533 7.17752 5.47916 7.19436 5.46388C7.19491 5.46333 7.19573 5.46278 7.19628 5.46223C7.35624 5.3174 7.56056 5.24 7.79516 5.23862C7.79571 5.23862 7.79646 5.23862 7.79728 5.23862C7.79838 5.23862 7.79913 5.23862 7.80023 5.23862C8.03242 5.23862 8.29317 5.31307 8.56872 5.47008L18.5716 11.1807L18.5714 11.1809L18.5077 11.2449Z" fill="url(#paint11_linear_153_333)"/>
  <defs>
    <linearGradient id="paint0_linear_153_333" x1="14.9273" y1="6.31824" x2="3.38058" y2="17.8099" gradientUnits="userSpaceOnUse">
      <stop stop-color="#00A0FF"/>
      <stop offset="0.00657445" stop-color="#00A1FF"/>
      <stop offset="0.2601" stop-color="#00BEFF"/>
      <stop offset="0.5122" stop-color="#00D2FF"/>
      <stop offset="0.7604" stop-color="#00DFFF"/>
      <stop offset="1" stop-color="#00E3FF"/>
    </linearGradient>
    <linearGradient id="paint1_linear_153_333" x1="23.168" y1="14.0873" x2="6.59919" y2="14.0873" gradientUnits="userSpaceOnUse">
      <stop stop-color="#FFE000"/>
      <stop offset="0.4087" stop-color="#FFBD00"/>
      <stop offset="0.7754" stop-color="#FFA500"/>
      <stop offset="1" stop-color="#FF9C00"/>
    </linearGradient>
    <linearGradient id="paint2_linear_153_333" x1="17.0002" y1="15.6661" x2="1.34194" y2="31.2496" gradientUnits="userSpaceOnUse">
      <stop stop-color="#FF3A44"/>
      <stop offset="1" stop-color="#C31162"/>
    </linearGradient>
    <linearGradient id="paint3_linear_153_333" x1="4.9968" y1="0.446923" x2="11.9888" y2="7.40558" gradientUnits="userSpaceOnUse">
      <stop stop-color="#32A071"/>
      <stop offset="0.0685" stop-color="#2DA771"/>
      <stop offset="0.4762" stop-color="#15CF74"/>
      <stop offset="0.8009" stop-color="#06E775"/>
      <stop offset="1" stop-color="#00F076"/>
    </linearGradient>
    <linearGradient id="paint4_linear_153_333" x1="23.1678" y1="14.0871" x2="6.59961" y2="14.0871" gradientUnits="userSpaceOnUse">
      <stop stop-color="#CCB300"/>
      <stop offset="0.4087" stop-color="#CC9700"/>
      <stop offset="0.7754" stop-color="#CC8400"/>
      <stop offset="1" stop-color="#CC7D00"/>
    </linearGradient>
    <linearGradient id="paint5_linear_153_333" x1="17.0002" y1="15.6661" x2="1.34194" y2="31.2496" gradientUnits="userSpaceOnUse">
      <stop stop-color="#CC2E36"/>
      <stop offset="1" stop-color="#9C0E4E"/>
    </linearGradient>
    <linearGradient id="paint6_linear_153_333" x1="14.9273" y1="6.31822" x2="3.38057" y2="17.8098" gradientUnits="userSpaceOnUse">
      <stop stop-color="#008DE0"/>
      <stop offset="0.00657445" stop-color="#008DE0"/>
      <stop offset="0.2601" stop-color="#00A7E0"/>
      <stop offset="0.5122" stop-color="#00B8E0"/>
      <stop offset="0.7604" stop-color="#00C4E0"/>
      <stop offset="1" stop-color="#00C7E0"/>
    </linearGradient>
    <linearGradient id="paint7_linear_153_333" x1="17.0003" y1="15.6659" x2="1.34158" y2="31.2495" gradientUnits="userSpaceOnUse">
      <stop stop-color="#E0333C"/>
      <stop offset="1" stop-color="#AB0F56"/>
    </linearGradient>
    <linearGradient id="paint8_linear_153_333" x1="23.168" y1="14.0873" x2="6.59918" y2="14.0873" gradientUnits="userSpaceOnUse">
      <stop stop-color="#E0C500"/>
      <stop offset="0.4087" stop-color="#E0A600"/>
      <stop offset="0.7754" stop-color="#E09100"/>
      <stop offset="1" stop-color="#E08900"/>
    </linearGradient>
    <linearGradient id="paint9_linear_153_333" x1="23.168" y1="14.0873" x2="6.59919" y2="14.0873" gradientUnits="userSpaceOnUse">
      <stop stop-color="#FFE840"/>
      <stop offset="0.4087" stop-color="#FFCE40"/>
      <stop offset="0.7754" stop-color="#FFBC40"/>
      <stop offset="1" stop-color="#FFB540"/>
    </linearGradient>
    <linearGradient id="paint10_linear_153_333" x1="14.9273" y1="6.31823" x2="3.38057" y2="17.8099" gradientUnits="userSpaceOnUse">
      <stop stop-color="#40B8FF"/>
      <stop offset="0.00657445" stop-color="#40B9FF"/>
      <stop offset="0.2601" stop-color="#40CEFF"/>
      <stop offset="0.5122" stop-color="#40DDFF"/>
      <stop offset="0.7604" stop-color="#40E7FF"/>
      <stop offset="1" stop-color="#40EAFF"/>
    </linearGradient>
    <linearGradient id="paint11_linear_153_333" x1="4.9968" y1="0.446892" x2="11.9888" y2="7.40555" gradientUnits="userSpaceOnUse">
      <stop stop-color="#65B895"/>
      <stop offset="0.0685" stop-color="#62BD95"/>
      <stop offset="0.4762" stop-color="#50DB97"/>
      <stop offset="0.8009" stop-color="#44ED98"/>
      <stop offset="1" stop-color="#40F498"/>
    </linearGradient>
  </defs>
</svg>