<svg xmlns="http://www.w3.org/2000/svg" width="10" height="19" viewBox="0 0 10 19" fill="none">
  <path d="M1.82205 18.6949C1.52 18.6955 1.22728 18.5898 0.994697 18.396C0.863797 18.2869 0.755593 18.1529 0.676281 18.0016C0.59697 17.8504 0.548109 17.685 0.532498 17.5147C0.516887 17.3445 0.534833 17.1728 0.585307 17.0096C0.635781 16.8463 0.717791 16.6947 0.826642 16.5633L6.61808 9.59669L1.03348 2.61704C0.926098 2.48409 0.845907 2.33112 0.797518 2.16691C0.749129 2.0027 0.733495 1.83049 0.751515 1.66019C0.769534 1.48988 0.820852 1.32484 0.902518 1.17454C0.984185 1.02424 1.09459 0.891654 1.22739 0.784395C1.36114 0.666071 1.51778 0.57682 1.68747 0.522245C1.85715 0.46767 2.03623 0.448948 2.21345 0.467255C2.39068 0.485562 2.56223 0.540502 2.71733 0.628627C2.87244 0.716753 3.00775 0.836161 3.11478 0.979358L9.35868 8.77785C9.54881 9.01042 9.65276 9.30214 9.65276 9.60319C9.65276 9.90424 9.54881 10.196 9.35868 10.4285L2.89501 18.227C2.76533 18.3843 2.60059 18.5087 2.41417 18.59C2.22774 18.6712 2.02488 18.7072 1.82205 18.6949Z" fill="white"/>
</svg>