<svg xmlns="http://www.w3.org/2000/svg" width="327" height="295" viewBox="0 0 327 295" fill="none">
  <defs>
    <linearGradient id="grad1" x1="0%" y1="0%" x2="100%" y2="0%">
      <stop offset="0%" style="stop-color:#166fff" />
      <stop offset="100%" style="stop-color:#2f8bfa" />
    </linearGradient>
  </defs>
  <path d="M326.59 289.864V0.302734H254.014V195.216C249.118 200.441 243.256 205.275 236.488 209.677C229.699 214.1 222.396 217.885 214.538 221.074C206.7 224.262 198.472 226.751 189.894 228.541C181.315 230.351 172.861 231.236 164.529 231.236C146.879 231.236 132.13 229.076 120.28 224.735C108.431 220.416 98.9479 214.326 91.8302 206.468C84.7126 198.631 79.6933 189.188 76.7516 178.141C73.8099 167.115 72.3287 154.896 72.3287 141.483V111.799H0V151.769C0 174.48 2.77722 194.722 8.33147 212.454C13.8857 230.187 22.6698 245.142 34.6834 257.32C46.697 269.499 62.1459 278.776 81.0303 285.153C99.9148 291.53 122.584 294.719 149.06 294.719C165.229 294.719 182.324 292.436 200.303 287.848C218.282 283.281 236.179 275.67 253.994 265.055V289.823H326.569L326.59 289.864Z" fill="url(#grad1)"/>
</svg>
