<svg xmlns="http://www.w3.org/2000/svg" width="384" height="347" viewBox="0 0 384 347" fill="none">
  <defs>
    <linearGradient id="grad1" x1="0%" y1="0%" x2="100%" y2="0%">
      <stop offset="0%" style="stop-color:#166fff" />
      <stop offset="100%" style="stop-color:#2f8bfa" />
    </linearGradient>
  </defs>
  <path d="M384 340.463V0H298.667V229.176C292.91 235.32 286.017 241.004 278.059 246.18C270.077 251.38 261.491 255.831 252.251 259.58C243.036 263.329 233.361 266.255 223.274 268.36C213.188 270.488 203.247 271.528 193.451 271.528C172.699 271.528 155.356 268.989 141.424 263.885C127.492 258.806 116.342 251.646 107.973 242.407C99.604 233.191 93.7023 222.089 90.2435 209.1C86.7847 196.136 85.0432 181.769 85.0432 165.999V131.096H0V178.092C0 204.795 3.26542 228.596 9.79604 249.445C16.3266 270.295 26.6548 287.879 40.7803 302.198C54.9058 316.517 73.0703 327.426 95.2744 334.924C117.478 342.422 144.133 346.171 175.262 346.171C194.274 346.171 214.374 343.486 235.513 338.092C256.653 332.723 277.696 323.773 298.643 311.292V340.414H383.976L384 340.463Z" fill="url(#grad1)"/>
</svg>
